<?xml version="1.0" standalone="no"?>
<!DOCTYPE svg PUBLIC "-//W3C//DTD SVG 20010904//EN"
 "http://www.w3.org/TR/2001/REC-SVG-20010904/DTD/svg10.dtd">
<svg version="1.0" xmlns="http://www.w3.org/2000/svg"
 width="2200.000000pt" height="2200.000000pt" viewBox="0 0 2200.000000 2200.000000"
 preserveAspectRatio="xMidYMid meet">

<g transform="translate(0.000000,2200.000000) scale(0.100000,-0.100000)"
fill="#000000" stroke="none">
<path d="M10630 19464 c-1117 -66 -2074 -310 -3035 -773 -789 -381 -1479 -874
-2116 -1510 -433 -434 -764 -845 -1081 -1346 -1048 -1654 -1434 -3657 -1078
-5595 338 -1840 1327 -3492 2800 -4675 881 -707 1888 -1206 2998 -1484 1116
-280 2340 -303 3487 -65 980 204 1966 624 2795 1192 1099 752 1993 1776 2580
2952 463 927 716 1835 807 2890 20 243 24 928 5 1160 -68 846 -233 1571 -525
2315 -739 1884 -2219 3435 -4065 4261 -829 372 -1663 584 -2612 665 -125 10
-837 20 -960 13z m952 -598 c946 -80 1784 -312 2623 -726 1126 -557 2091
-1402 2799 -2453 1101 -1637 1481 -3663 1049 -5606 -245 -1105 -768 -2169
-1492 -3036 -510 -610 -1124 -1143 -1777 -1543 -1222 -748 -2630 -1118 -4046
-1062 -145 5 -283 12 -308 15 -25 3 -94 10 -155 15 -969 95 -1923 394 -2789
874 -1255 696 -2303 1790 -2945 3074 -437 874 -674 1738 -753 2742 -15 203
-15 791 0 1000 62 810 234 1543 533 2267 491 1188 1306 2238 2344 3018 1111
834 2462 1337 3825 1425 91 6 190 12 220 14 119 8 705 -4 872 -18z"/>
<path d="M10945 18206 c-50 -22 -83 -69 -90 -128 -3 -29 -5 -258 -3 -508 3
-416 5 -458 21 -488 53 -96 201 -96 254 0 17 31 18 71 18 535 0 491 0 502 -21
529 -47 64 -119 88 -179 60z"/>
<path d="M8543 17586 c-37 -17 -53 -43 -53 -87 0 -37 215 -563 245 -596 11
-13 36 -26 57 -30 33 -5 41 -2 74 31 31 31 36 41 31 69 -8 52 -227 570 -250
594 -29 29 -65 36 -104 19z"/>
<path d="M13385 17591 c-11 -5 -27 -17 -37 -27 -20 -24 -238 -548 -245 -591
-5 -28 0 -38 31 -69 33 -33 41 -36 74 -31 21 4 46 17 57 30 30 33 245 559 245
596 0 45 -16 70 -55 87 -39 16 -42 16 -70 5z"/>
<path d="M6402 16323 c-59 -29 -90 -92 -77 -161 6 -32 53 -83 353 -385 191
-192 359 -355 374 -363 61 -32 152 -7 188 51 24 38 26 104 6 143 -22 42 -697
710 -729 722 -40 14 -77 12 -115 -7z"/>
<path d="M10930 16318 c-18 -13 -43 -36 -54 -51 l-21 -28 -3 -2286 c-1 -1562
1 -2297 8 -2324 6 -21 21 -50 33 -64 34 -39 2810 -1396 2868 -1402 77 -9 139
39 154 118 10 51 -19 115 -64 143 -30 18 -1531 756 -2438 1197 l-263 128 -2
2245 -3 2245 -21 28 c-32 43 -82 73 -124 73 -22 0 -51 -9 -70 -22z"/>
<path d="M15480 16329 c-30 -12 -705 -683 -726 -721 -20 -39 -18 -105 6 -143
36 -58 127 -83 188 -51 41 22 709 697 721 729 16 43 13 78 -12 121 -36 64
-110 91 -177 65z"/>
<path d="M5123 14166 c-38 -17 -53 -43 -53 -91 0 -24 7 -43 23 -58 12 -13 150
-76 306 -140 222 -93 289 -117 312 -112 37 8 79 59 79 96 0 58 -37 80 -323
198 -148 61 -279 113 -290 116 -12 3 -36 -2 -54 -9z"/>
<path d="M16545 14064 c-298 -123 -335 -145 -335 -203 0 -37 42 -88 79 -96 22
-5 86 18 287 101 302 124 330 138 344 163 13 26 13 77 -1 103 -9 17 -65 48
-86 48 -4 0 -134 -53 -288 -116z"/>
<path d="M4546 11800 c-115 -35 -135 -198 -33 -260 31 -19 55 -20 537 -20 489
0 506 1 538 20 44 27 75 96 66 146 -9 48 -57 101 -102 114 -45 12 -964 12
-1006 0z"/>
<path d="M16446 11800 c-115 -35 -135 -198 -33 -260 31 -19 55 -20 537 -20
489 0 506 1 538 20 44 27 75 96 66 146 -9 48 -57 101 -102 114 -45 12 -964 12
-1006 0z"/>
<path d="M5390 9444 c-151 -63 -285 -124 -297 -136 -17 -16 -23 -33 -23 -65 0
-57 33 -93 85 -93 52 0 583 221 613 255 51 60 1 157 -80 154 -13 0 -147 -52
-298 -115z"/>
<path d="M16261 9546 c-50 -28 -65 -95 -31 -138 26 -33 563 -258 615 -258 52
0 85 36 85 93 0 32 -6 49 -23 65 -26 24 -570 252 -601 252 -12 -1 -32 -7 -45
-14z"/>
<path d="M7085 7922 c-44 -5 -740 -699 -757 -754 -22 -73 23 -154 99 -179 78
-25 87 -18 461 354 189 188 350 354 358 369 32 61 7 160 -48 189 -31 17 -77
25 -113 21z"/>
<path d="M14855 7920 c-47 -10 -74 -28 -95 -63 -24 -38 -26 -107 -6 -145 8
-15 169 -181 358 -369 288 -286 350 -343 384 -353 100 -30 198 63 179 168 -6
32 -54 85 -353 385 -191 192 -356 353 -366 359 -33 18 -70 25 -101 18z"/>
<path d="M8741 6423 c-21 -21 -59 -101 -140 -298 -111 -273 -114 -282 -112
-323 3 -64 103 -96 155 -49 16 14 64 119 140 304 64 155 116 289 116 298 0 25
-28 73 -49 85 -35 18 -79 12 -110 -17z"/>
<path d="M13147 6439 c-19 -11 -47 -60 -47 -84 0 -9 52 -143 116 -298 76 -185
124 -290 140 -304 58 -53 154 -13 154 64 0 56 -212 569 -251 606 -31 29 -78
36 -112 16z"/>
<path d="M10945 6306 c-50 -22 -83 -69 -90 -128 -3 -29 -5 -258 -3 -508 3
-505 2 -499 71 -540 68 -42 167 -16 204 52 17 31 18 71 18 535 0 491 0 502
-21 529 -47 64 -119 88 -179 60z"/>
</g>
</svg>
